<svg width="516" height="300" viewBox="0 0 516 300" xmlns="http://www.w3.org/2000/svg">
	<style>
		.code {
			font-family: Arial;
			font-size: 28px;
		}

		.label {
			font-family: Arial;
			font-size: 48px;
			text-anchor: middle;
			text-align: center;
		}
	</style>

			<g>
			<text class="label" x="272" y="48">ISSN 3009-1004</text>
		</g>
	
	<g>
		<!-- EAN-13 Bars -->
		<rect x="28" y="80" width="4" height="200" /><rect x="36" y="80" width="4" height="200" /><rect x="44" y="80" width="12" height="180" /><rect x="60" y="80" width="8" height="180" /><rect x="76" y="80" width="4" height="180" /><rect x="92" y="80" width="4" height="180" /><rect x="100" y="80" width="4" height="180" /><rect x="120" y="80" width="4" height="180" /><rect x="136" y="80" width="8" height="180" /><rect x="148" y="80" width="4" height="180" /><rect x="156" y="80" width="4" height="180" /><rect x="168" y="80" width="12" height="180" /><rect x="192" y="80" width="4" height="180" /><rect x="200" y="80" width="8" height="180" /><rect x="212" y="80" width="4" height="200" /><rect x="220" y="80" width="4" height="200" /><rect x="228" y="80" width="8" height="180" /><rect x="244" y="80" width="8" height="180" /><rect x="256" y="80" width="12" height="180" /><rect x="276" y="80" width="4" height="180" /><rect x="284" y="80" width="12" height="180" /><rect x="304" y="80" width="4" height="180" /><rect x="312" y="80" width="12" height="180" /><rect x="332" y="80" width="4" height="180" /><rect x="340" y="80" width="12" height="180" /><rect x="360" y="80" width="4" height="180" /><rect x="368" y="80" width="8" height="180" /><rect x="380" y="80" width="8" height="180" /><rect x="396" y="80" width="4" height="200" /><rect x="404" y="80" width="4" height="200" />	</g>
	<g>
		<!-- EAN-13 Text -->
		<text class="code" x="0" y="290" textLength="28">9</text>
		<text class="code" x="54" y="290" textLength="140">773009</text>
		<text class="code" x="242" y="290" textLength="140">100002</text>
	</g>

			<g>
			<!-- Add-On Text -->
			<text class="code" x="450" y="100" textLength="52">01</text>
		</g>
		<g>
			<!-- Add-On Bars -->
			<rect x="436" y="110" width="4" height="170" /><rect x="444" y="110" width="8" height="170" /><rect x="464" y="110" width="8" height="170" /><rect x="476" y="110" width="4" height="170" /><rect x="484" y="110" width="4" height="170" /><rect x="492" y="110" width="8" height="170" /><rect x="508" y="110" width="8" height="170" />		</g>
	</svg>
		