<svg width="408" viewBox="0 0 408 220" xmlns="http://www.w3.org/2000/svg">
	<style>
		.code {
			font-family: Arial;
			font-size: 28px;
		}

		.label {
			font-family: Arial;
			font-size: 48px;
			text-anchor: middle;
			text-align: center;
		}
	</style>

	
	<g>
		<!-- EAN-13 Bars -->
		<rect x="28" y="0" width="4" height="200" /><rect x="36" y="0" width="4" height="200" /><rect x="44" y="0" width="12" height="180" /><rect x="60" y="0" width="8" height="180" /><rect x="80" y="0" width="4" height="180" /><rect x="92" y="0" width="4" height="180" /><rect x="104" y="0" width="4" height="180" /><rect x="112" y="0" width="12" height="180" /><rect x="128" y="0" width="4" height="180" /><rect x="136" y="0" width="16" height="180" /><rect x="160" y="0" width="4" height="180" /><rect x="176" y="0" width="4" height="180" /><rect x="188" y="0" width="4" height="180" /><rect x="200" y="0" width="8" height="180" /><rect x="212" y="0" width="4" height="200" /><rect x="220" y="0" width="4" height="200" /><rect x="228" y="0" width="12" height="180" /><rect x="248" y="0" width="4" height="180" /><rect x="256" y="0" width="4" height="180" /><rect x="268" y="0" width="4" height="180" /><rect x="284" y="0" width="4" height="180" /><rect x="296" y="0" width="4" height="180" /><rect x="312" y="0" width="4" height="180" /><rect x="320" y="0" width="4" height="180" /><rect x="340" y="0" width="8" height="180" /><rect x="352" y="0" width="8" height="180" /><rect x="368" y="0" width="8" height="180" /><rect x="380" y="0" width="8" height="180" /><rect x="396" y="0" width="4" height="200" /><rect x="404" y="0" width="4" height="200" />	</g>
	<g>
		<!-- EAN-13 Text -->
		<text class="code" x="0" y="210" textLength="28">9</text>
		<text class="code" x="54" y="210" textLength="140">789672</text>
		<text class="code" x="242" y="210" textLength="140">088622</text>
	</g>

	</svg>
		